<svg width="189" height="238" viewBox="0 0 189 238" fill="none" xmlns="http://www.w3.org/2000/svg">
<g id="Frame 288" clip-path="url(#clip0_968_15300)">
<ellipse id="Ellipse 31" cx="112" cy="227" rx="72" ry="5" fill="#EDFBFB"/>
<g id="Group 241">
<path id="Vector 453" d="M66.9735 34.2086C64.3761 35.6849 58.4216 31.8942 63.1821 26.9726" stroke="black" stroke-width="2"/>
<path id="Vector 261" d="M10.9457 98.366C9.28612 95.8818 12.6379 89.6696 17.8897 94.0631" stroke="black" stroke-width="2"/>
<path id="Vector 263" d="M46.0082 89.5105C44.7595 91.7985 49.0452 96.4845 53.5413 92.1183" stroke="black" stroke-width="2"/>
<g id="Group 240">
<g id="Group 239">
<g id="Group 238">
<g id="Group 235">
<g id="Group 230">
<path id="Vector 508" d="M32.743 143.64C33.6069 134.657 72.0837 125.753 89.1442 123.089L126.073 128.704C126.433 133.239 126.937 143.951 126.073 150.516C124.993 158.722 122.617 186.188 126.073 186.188C128.837 186.188 155.31 184.168 166.386 182.773L165.073 213.292C149.812 212.5 112.254 207.787 107.071 204.505C101.888 201.222 99.5821 167.144 96.0548 150.516L62.3656 157.642L87.5456 198.607L56.2884 208.452C49.0899 191.463 31.8792 152.624 32.743 143.64Z" fill="#132128"/>
</g>
<g id="Group 234">
<path id="Vector 506" d="M97.232 68.7773C100.176 68.9938 102.942 69.3741 103.442 68.7773L108.001 84.319L75.4047 71.7047L78.7403 66.4768C84.3992 67.4007 94.2877 68.5608 97.232 68.7773Z" fill="#FFE7B5"/>
<path id="Vector 504" d="M102.082 87.9885L88.0645 122.657C103.613 141.143 121.61 138.854 128.664 135.399C125.425 118.122 139.03 111.644 145.077 99.5501C151.124 87.4565 145.175 78.391 138.913 72.9921C133.903 68.673 122.408 65.0064 105.663 67.3161L102.082 87.9885Z" fill="#4CD8DB"/>
<g id="Group 231">
<path id="Vector 271" d="M135.545 85.244C137.29 83.2094 136.687 74.6499 137.301 71.8155C132.245 68.0432 125.37 66.7289 119.703 66.7289C115.112 71.4128 114.86 76.3187 115.254 78.5347C117.163 73.7254 120.205 75.2752 119.703 78.3736C119.202 81.472 111.614 100.313 108.586 106.564C105.452 113.035 96.9469 124.031 94.9371 130.121L100.7 133.963L108.586 136.794C108.586 119.202 118.505 101.727 121.73 93.2183C125.761 82.5823 130.987 79.2485 133.359 79.6247C135.256 79.9256 135.607 83.4963 135.545 85.244Z" fill="white"/>
<path id="Vector 209" d="M122.322 77.0443C125.556 80.0611 129.348 78.1546 130.415 76.6131L133.986 69.3609L135.991 68.3589C157.553 58.1197 132.785 38.2929 125.609 48.9137C116.292 62.7042 123.853 66.1229 124.427 66.3127L122.302 70.379C120.093 71.8427 119.089 74.0275 122.322 77.0443Z" fill="#FFE7B5"/>
<path id="Vector 210" d="M139.64 62.9645C139.074 62.7182 137.629 62.4726 136.376 63.4603" stroke="black"/>
<path id="Vector 208" d="M136.734 56.4296C136.066 58.2853 136.53 59.9822 136.846 60.5986C140.193 58.8941 142.645 62.3086 140.887 64.3698C139.48 66.0188 137.009 65.9557 135.949 65.718L133.806 69.4324C135.782 70.4078 137.377 69.0226 137.927 68.2081C144.423 70.7293 145.793 65.7639 146.112 63.1241C147.15 63.0328 150.221 62.4731 150.63 59.7C151.04 56.9268 149.051 55.3553 148.006 54.9161C148.986 54.3686 150.554 52.3364 148.987 48.5879C147.42 44.8394 143.005 43.7161 140.994 43.6231C140.713 41.8718 137.825 40.776 134.712 41.0498C131.599 41.3235 128.633 38.3181 126.467 40.4413C124.733 42.1399 125.069 45.539 124.862 46.5671C121.617 48.3358 121.999 51.6038 123.06 53.1037L125.887 48.9201C126.832 52.3967 132.224 49.4387 134.715 49.2197C137.828 48.946 137.569 54.1101 136.734 56.4296Z" fill="black"/>
<path id="Vector 211" d="M122.113 70.4677L124.436 66.2436C126.12 67.2894 127.968 68.168 130.682 68.1106C129.271 69.4135 124.222 70.1572 122.125 70.4659L122.113 70.4677Z" fill="black"/>
</g>
<path id="Vector 508_2" d="M100.581 89.7208L103.147 88.7414C103.751 77.8029 105.758 70.685 106.862 67.19L100.581 67.19C97.1574 76.0411 100.526 85.583 100.581 89.7208Z" fill="#36999B"/>
<path id="Vector 505" d="M103.459 82.3373C99.4857 81.6463 81.0073 71.6803 73.8807 67.5771L70.5798 73.8121C77.2025 78.9951 94.4324 91.5803 98.9242 93.999C103.416 96.4177 114.185 98.75 119.008 99.6138L121.816 83.6331C117.353 83.4891 107.433 83.0284 103.459 82.3373Z" fill="#FFE7B5"/>
<path id="Vector 507" d="M113.054 80.7127L109.474 101.154L116.169 102.014L133.256 104.441C141.555 93.7428 140.602 81.8613 138.008 78.7604L113.054 80.7127Z" fill="#4CD8DB"/>
<path id="Vector 507_2" d="M108.781 101.27L116.361 102.272C117.475 90.6346 120.767 83.7681 122.065 80.0083L114.357 78.8169C110.422 88.3669 108.91 96.8804 108.781 101.27Z" fill="#36999B"/>
<g id="Group 237">
<g id="Group 236">
<path id="Vector 499" d="M16.8014 0.909189L64.4778 51.6298C62.5088 53.508 58.3146 57.6296 57.2903 59.0902C56.266 60.5508 51.9491 64.0508 49.9186 65.6183L1.23122 14.0489C0.801095 10.43 5.24357 5.68871 9.96358 2.29442C13.7396 -0.421007 16.0955 0.239504 16.8014 0.909189Z" fill="#ECBCBC"/>
<g id="Group 227">
<path id="Vector 503" d="M31.364 39.1968L34.048 25.9591L31.7386 23.3269L28.9443 36.8713L31.364 39.1968Z" fill="#FCD4D4"/>
<path id="Vector 501" d="M58.3022 64.2694L63.1569 59.5379L83.6734 81.4687L79.3388 86.0063L58.3022 64.2694Z" fill="#2CC4B5"/>
<path id="Vector 500" d="M58.5107 64.1712L63.152 59.744C62.3509 58.7352 62.4346 55.1903 62.5766 53.5439C54.8453 56.0835 52.3852 61.5864 52.1215 64.0204C54.2001 63.3271 57.247 63.8321 58.5107 64.1712Z" fill="#29978C"/>
<rect id="Rectangle 179" x="86.7467" y="82.9143" width="8.60713" height="3.52633" rx="1.76317" transform="rotate(134.112 86.7467 82.9143)" fill="#29978C"/>
<path id="Vector 502" d="M45.9245 55.7285L54.6869 47.068L35.7681 27.3401L32.6379 42.0107L45.9245 55.7285Z" fill="#FCD4D4"/>
</g>
</g>
</g>
</g>
<g id="Group 232">
<path id="Vector 509" d="M160.069 212.964L165.386 213.456L165.386 201.659L160.069 212.964Z" fill="black"/>
<path id="Vector 510" d="M183.267 184.852L171.719 187.566L172.017 211.445C174.719 215.799 180.929 218.415 183.696 219.178L183.267 184.852Z" fill="#70E0E2"/>
<rect id="Rectangle 27" width="3.44921" height="4.35974" transform="matrix(0.0125037 0.999922 0.973481 -0.228767 171.864 199.227)" fill="#45C5C7"/>
<rect id="Rectangle 28" width="3.44921" height="4.35974" transform="matrix(0.0125037 0.999922 0.973481 -0.228767 171.92 203.661)" fill="#45C5C7"/>
<rect id="Rectangle 29" width="34.9848" height="4.20157" rx="2.10078" transform="matrix(0.0125037 0.999922 0.973481 -0.228767 182.778 184.309)" fill="#4CD8DB"/>
<path id="Vector 511" d="M187.065 199.114C185.072 200.241 182.837 203.666 187.139 205.027L187.065 199.114Z" fill="white"/>
<rect id="Rectangle 30" width="35.0823" height="8.27196" transform="matrix(0.0741774 -0.997245 0.992352 -0.123441 163.918 216.036)" fill="#36999B"/>
</g>
<g id="Group 233">
<path id="Vector 509_2" d="M52.8424 200.33L54.6473 204.842L71.1377 200.33L52.8424 200.33Z" fill="black"/>
<path id="Vector 510_2" d="M89.4186 217.731L84.2785 206.091L59.1629 211.118C55.1054 214.826 53.5736 221.889 53.315 224.957L89.4186 217.731Z" fill="#70E0E2"/>
<rect id="Rectangle 27_2" width="3.69948" height="4.67609" transform="matrix(-0.980551 0.196263 0.403969 0.914773 72.0129 208.546)" fill="#45C5C7"/>
<rect id="Rectangle 28_2" width="3.69948" height="4.67609" transform="matrix(-0.980551 0.196263 0.403969 0.914773 67.3491 209.48)" fill="#45C5C7"/>
<rect id="Rectangle 29_2" width="37.5233" height="4.50644" rx="2.25322" transform="matrix(-0.980551 0.196263 0.403969 0.914773 89.8942 217.108)" fill="#4CD8DB"/>
<path id="Vector 511_2" d="M75.1319 224.549C73.5503 222.671 69.4992 220.99 68.9133 225.794L75.1319 224.549Z" fill="white"/>
<rect id="Rectangle 30_2" width="37.6279" height="8.87218" transform="matrix(0.979663 -0.200651 0.389441 0.921051 50.9911 204.376)" fill="#36999B"/>
</g>
</g>
<path id="Vector 512" d="M77.5483 74.7289L75.8062 69.0633C73.5878 66.3878 71.8305 66.5685 71.0383 66.5685C70.246 66.5685 71.0214 66.6191 71.4967 68.0355C71.9721 69.4519 67.2497 69.0633 63.7638 69.0633C60.2778 69.0633 60.1194 72.3683 62.8131 73.9421C64.968 75.2011 75.33 75.2535 77.5483 74.7289Z" fill="#FFE7B5"/>
<path id="Vector 513" d="M79.2904 66.5685L81.4431 72.1196C78.5541 73.4479 73.9523 72.5978 73.213 72.313C72.4737 72.0282 69.9777 73.0742 70.8549 72.1196C71.7321 71.1651 72.7878 70.1323 70.2058 67.7903C67.6457 65.4682 68.9367 65.89 71.8635 65.1932C73.789 64.7347 76.9982 66.1101 79.2904 66.5685Z" fill="#FFE7B5"/>
</g>
<path id="Vector 514" d="M128.706 104.138L116.202 102.014C115.231 97.2423 119.774 85.2648 122.167 79.8726H124.391C120.104 85.5344 117.787 100.7 128.706 104.138Z" fill="#45C5C7"/>
</g>
<path id="Vector 515" d="M95.8011 150.698L91.0622 135.955" stroke="white"/>
</g>
<path id="Vector 516" d="M106.743 96.885C105.985 93.9363 107.059 86.3189 107.691 82.8788L112.851 83.1947C111.166 85.9749 109.622 93.9714 109.06 97.6221L106.743 96.885Z" fill="#FFE7B5"/>
<path id="Vector 517" d="M79.7841 66.7664C82.2273 67.8616 94.0009 76.7708 99.5823 81.0885C99.0769 77.7186 99.793 71.6808 100.214 69.0832L79.7841 66.7664Z" fill="#FFDC92"/>
</g>
</g>
<defs>
<clipPath id="clip0_968_15300">
<rect width="189" height="238" fill="white"/>
</clipPath>
</defs>
</svg>
