<svg width="117" height="22" viewBox="0 0 117 22" fill="none" xmlns="http://www.w3.org/2000/svg">
<g id="Group 301">
<path id="Vector" fill-rule="evenodd" clip-rule="evenodd" d="M81.3155 6.45384C81.0333 6.42169 80.3902 6.40382 80.3616 6.4074V9.57999C80.3937 9.57999 81.0726 9.61214 81.3619 9.67288C84.0951 10.2588 85.86 13.4421 83.9379 16.5147C83.2234 17.6544 81.9014 18.201 80.5581 18.151C80.4902 18.151 80.4259 18.151 80.3616 18.151C79.8007 18.1367 79.2648 18.0188 78.7753 17.808V2.39164C77.8678 1.64851 76.7853 1.11974 75.5991 0.86965C75.2526 0.798196 74.8989 0.758896 74.538 0.733887V3.91005C74.9096 3.95292 75.2633 4.03867 75.5991 4.16729V19.5193C76.4959 20.2911 77.582 20.852 78.7753 21.1271C79.2862 21.245 79.8185 21.3093 80.3616 21.3164C80.3937 21.3164 80.4259 21.3164 80.458 21.3164C84.5774 21.3164 87.9179 17.9759 87.9179 13.8566C87.9179 10.0266 85.0311 6.87185 81.3155 6.4467V6.45384Z" fill="#4CD8DB"/>
<path id="Vector_2" d="M7.52061 9.33297C4.98397 9.33297 3.16545 11.2337 3.16545 14.0168C3.16545 16.8 4.98397 18.7007 7.52061 18.7007C9.36772 18.7007 10.854 18.0933 11.8472 16.9358L13.6121 18.7007C12.2902 20.437 10.168 21.4303 7.38485 21.4303C3.02968 21.4303 0 18.4256 0 14.0168C0 9.60807 3.02968 6.5498 7.38485 6.5498C10.0322 6.5498 12.0973 7.40369 13.4478 8.94711L11.7114 10.9871C10.6932 9.94033 9.28555 9.30439 7.52061 9.33297Z" fill="black"/>
<g id="Group">
<path id="Vector_3" d="M15.8522 6.66089V9.83705C16.2238 9.87993 16.5775 9.96567 16.9133 10.0943V12.145V21.3198H20.0824V8.31864C19.1749 7.57551 18.0995 7.04674 16.9133 6.79665C16.5704 6.7252 16.2131 6.6859 15.8522 6.66089Z" fill="black"/>
<path id="Vector_4" d="M18.4853 4.39933C19.5322 4.39933 20.3325 3.57403 20.3325 2.47005C20.3325 1.36607 19.5322 0.540771 18.4853 0.540771C17.4385 0.540771 16.6382 1.34106 16.6382 2.47005C16.6382 3.59904 17.4385 4.39933 18.4853 4.39933Z" fill="black"/>
</g>
<path id="Vector_5" d="M32.9835 6.5498V9.58306C30.036 9.41871 28.1603 11.1551 27.9138 13.6631V21.3231H24.7448V6.66056H27.9138V9.58306C28.9071 7.60019 30.6684 6.5498 32.9835 6.5498Z" fill="black"/>
<path id="Vector_6" d="M41.7439 9.33297C39.2072 9.33297 37.3887 11.2337 37.3887 14.0168C37.3887 16.8 39.2072 18.7007 41.7439 18.7007C43.591 18.7007 45.0772 18.0933 46.0705 16.9358L47.8354 18.7007C46.5135 20.437 44.3913 21.4303 41.6081 21.4303C37.2529 21.4303 34.2233 18.4256 34.2233 14.0168C34.2233 9.60807 37.2529 6.5498 41.6081 6.5498C44.2555 6.5498 46.3206 7.40369 47.6711 8.94711L45.9347 10.9871C44.9165 9.94033 43.5088 9.30439 41.7439 9.33297Z" fill="black"/>
<path id="Vector_7" d="M51.2795 0.86965C50.9365 0.798196 50.5792 0.758896 50.2184 0.733887V3.91005C50.5899 3.95292 50.9436 4.03867 51.2795 4.16729V6.21804V21.32H54.4485V2.39164C53.541 1.64851 52.4656 1.11974 51.2795 0.86965Z" fill="black"/>
<path id="Vector_8" fill-rule="evenodd" clip-rule="evenodd" d="M116.203 17.9581C115.349 18.3725 114.66 18.5904 113.999 18.5904C113.006 18.5904 112.427 18.1224 112.427 16.6076V9.57999H116.753V7.21126H112.452V2.39164C111.544 1.64851 110.469 1.11974 109.283 0.86965C108.94 0.798196 108.583 0.758896 108.222 0.733887V3.91005C108.593 3.95293 108.947 4.03867 109.286 4.16729V7.21126H107.221V9.57999H109.286V17.1864C109.286 20.191 111.187 21.4593 113.392 21.4593C114.631 21.4593 115.846 21.0735 117 20.384L116.2 17.9581H116.203Z" fill="#4CD8DB"/>
<path id="Vector_9" d="M61.0367 12.8878C61.3653 10.5441 63.0195 9.08645 65.3347 9.08645C67.6498 9.08645 69.304 10.5191 69.4147 12.8878H62.5443V15.203H72.1693C72.5552 9.91175 70.4615 6.5498 65.3061 6.5498C60.9509 6.57839 57.8926 9.58306 57.8926 14.0168C57.8926 18.4506 60.8687 21.4303 65.3882 21.4303C67.9249 21.4303 70.0185 20.5192 71.4512 18.9508L69.7684 17.1608C68.693 18.2648 67.2318 18.8686 65.6348 18.8686C63.3196 18.8686 61.5833 17.4645 61.0867 15.203C60.9616 14.4741 60.9366 13.706 61.0331 12.8878H61.0367Z" fill="black"/>
<path id="Vector_10" d="M94.2702 12.8878C94.5989 10.5441 96.2531 9.08645 98.5682 9.08645C100.883 9.08645 102.538 10.5191 102.648 12.8878H95.7779V15.203H105.403C105.789 9.91175 103.695 6.5498 98.5397 6.5498C94.1845 6.57839 91.1262 9.58306 91.1262 14.0168C91.1262 18.4506 94.1023 21.4303 98.6218 21.4303C101.158 21.4303 103.252 20.5192 104.685 18.9508L103.002 17.1608C101.927 18.2648 100.465 18.8686 98.8683 18.8686C96.5532 18.8686 94.8169 17.4645 94.3202 15.203C94.1952 14.4741 94.1702 13.706 94.2666 12.8878H94.2702Z" fill="#4CD8DB"/>
</g>
</svg>
