<svg width="24" height="25" viewBox="0 0 24 25" fill="none" xmlns="http://www.w3.org/2000/svg">
<mask id="mask0_152_2862" style="mask-type:alpha" maskUnits="userSpaceOnUse" x="0" y="0" width="24" height="25">
<rect y="0.5" width="24" height="24" fill="#D9D9D9"/>
</mask>
<g mask="url(#mask0_152_2862)">
<path d="M2 22.5V20.25C2 19.7333 2.13333 19.2625 2.4 18.8375C2.66667 18.4125 3.03333 18.0833 3.5 17.85C4.36667 17.4167 5.2625 17.0833 6.1875 16.85C7.1125 16.6167 8.05833 16.5 9.025 16.5C9.99167 16.5 10.9375 16.6167 11.8625 16.85C12.7875 17.0833 13.675 17.4167 14.525 17.85C14.975 18.0833 15.3333 18.4125 15.6 18.8375C15.8667 19.2625 16 19.7333 16 20.25V22.5H2ZM18 22.5V20C18 19.3667 17.8375 18.775 17.5125 18.225C17.1875 17.675 16.7833 17.1917 16.3 16.775C16.8333 16.9083 17.3625 17.0542 17.8875 17.2125C18.4125 17.3708 18.9167 17.575 19.4 17.825C19.8333 18.0583 20.2083 18.3583 20.525 18.725C20.8417 19.0917 21 19.5167 21 20V22.5H18ZM9 15.5C8.03333 15.5 7.20833 15.1583 6.525 14.475C5.84167 13.7917 5.5 12.9667 5.5 12C5.5 11.0333 5.84167 10.2083 6.525 9.525C7.20833 8.84167 8.03333 8.5 9 8.5C9.96667 8.5 10.7917 8.84167 11.475 9.525C12.1583 10.2083 12.5 11.0333 12.5 12C12.5 12.9667 12.1583 13.7917 11.475 14.475C10.7917 15.1583 9.96667 15.5 9 15.5ZM17.5 12C17.5 12.9667 17.1583 13.7917 16.475 14.475C15.7917 15.1583 14.9667 15.5 14 15.5C13.8667 15.5 13.7458 15.4958 13.6375 15.4875C13.5292 15.4792 13.4167 15.4583 13.3 15.425C13.7167 14.9417 14.0208 14.4083 14.2125 13.825C14.4042 13.2417 14.5 12.6333 14.5 12C14.5 11.3667 14.4042 10.7583 14.2125 10.175C14.0208 9.59167 13.7167 9.05833 13.3 8.575C13.4167 8.54167 13.5292 8.52083 13.6375 8.5125C13.7458 8.50417 13.8667 8.5 14 8.5C14.9667 8.5 15.7917 8.84167 16.475 9.525C17.1583 10.2083 17.5 11.0333 17.5 12ZM4 20.5H14V20.275C14 20.1417 13.9625 20.0125 13.8875 19.8875C13.8125 19.7625 13.7083 19.6667 13.575 19.6C12.8583 19.2333 12.1167 18.9583 11.35 18.775C10.5833 18.5917 9.8 18.5 9 18.5C8.2 18.5 7.41667 18.5917 6.65 18.775C5.88333 18.9583 5.14167 19.2333 4.425 19.6C4.29167 19.6667 4.1875 19.7583 4.1125 19.875C4.0375 19.9917 4 20.125 4 20.275V20.5ZM9 13.5C9.41667 13.5 9.77083 13.3542 10.0625 13.0625C10.3542 12.7708 10.5 12.4167 10.5 12C10.5 11.5833 10.3542 11.2292 10.0625 10.9375C9.77083 10.6458 9.41667 10.5 9 10.5C8.58333 10.5 8.22917 10.6458 7.9375 10.9375C7.64583 11.2292 7.5 11.5833 7.5 12C7.5 12.4167 7.64583 12.7708 7.9375 13.0625C8.22917 13.3542 8.58333 13.5 9 13.5ZM18.5 10.5C18.5 9.25 18.0625 8.1875 17.1875 7.3125C16.3125 6.4375 15.25 6 14 6C15.25 6 16.3125 5.5625 17.1875 4.6875C18.0625 3.8125 18.5 2.75 18.5 1.5C18.5 2.75 18.9375 3.8125 19.8125 4.6875C20.6875 5.5625 21.75 6 23 6C21.75 6 20.6875 6.4375 19.8125 7.3125C18.9375 8.1875 18.5 9.25 18.5 10.5Z" fill="#667085"/>
</g>
</svg>
