<svg width="24" height="25" viewBox="0 0 24 25" fill="none" xmlns="http://www.w3.org/2000/svg">
<mask id="mask0_1060_19878" style="mask-type:alpha" maskUnits="userSpaceOnUse" x="0" y="0" width="24" height="25">
<rect y="0.75" width="24" height="24" fill="#D9D9D9"/>
</mask>
<g mask="url(#mask0_1060_19878)">
<path fill-rule="evenodd" clip-rule="evenodd" d="M2 22.75V20.5C2 19.9833 2.13333 19.5125 2.4 19.0875C2.66667 18.6625 3.03333 18.3333 3.5 18.1C4.36667 17.6667 5.2625 17.3333 6.1875 17.1C7.1125 16.8667 8.05833 16.75 9.025 16.75C9.99167 16.75 10.9375 16.8667 11.8625 17.1C12.7875 17.3333 13.675 17.6667 14.525 18.1C14.975 18.3333 15.3333 18.6625 15.6 19.0875C15.8667 19.5125 16 19.9833 16 20.5V22.75H2ZM18 22.75V20.25C18 19.6167 17.8375 19.025 17.5125 18.475C17.1875 17.925 16.7833 17.4417 16.3 17.025C16.8333 17.1583 17.3625 17.3042 17.8875 17.4625C18.4125 17.6208 18.9167 17.825 19.4 18.075C19.8333 18.3083 20.2083 18.6083 20.525 18.975C20.8417 19.3417 21 19.7667 21 20.25V22.75H18ZM9 15.75C8.03333 15.75 7.20833 15.4083 6.525 14.725C5.84167 14.0417 5.5 13.2167 5.5 12.25C5.5 11.2833 5.84167 10.4583 6.525 9.775C7.20833 9.09167 8.03333 8.75 9 8.75C9.96667 8.75 10.7917 9.09167 11.475 9.775C12.1583 10.4583 12.5 11.2833 12.5 12.25C12.5 13.2167 12.1583 14.0417 11.475 14.725C10.7917 15.4083 9.96667 15.75 9 15.75ZM17.5 12.25C17.5 13.2167 17.1583 14.0417 16.475 14.725C15.7917 15.4083 14.9667 15.75 14 15.75C13.8667 15.75 13.7458 15.7458 13.6375 15.7375C13.5292 15.7292 13.4167 15.7083 13.3 15.675C13.7167 15.1917 14.0208 14.6583 14.2125 14.075C14.4042 13.4917 14.5 12.8833 14.5 12.25C14.5 11.6167 14.4042 11.0083 14.2125 10.425C14.0208 9.84167 13.7167 9.30833 13.3 8.825C13.4167 8.79167 13.5292 8.77083 13.6375 8.7625C13.7458 8.75417 13.8667 8.75 14 8.75C14.9667 8.75 15.7917 9.09167 16.475 9.775C17.1583 10.4583 17.5 11.2833 17.5 12.25ZM18.5 10.75C18.5 9.5 18.0625 8.4375 17.1875 7.5625C16.3125 6.6875 15.25 6.25 14 6.25C15.25 6.25 16.3125 5.8125 17.1875 4.9375C18.0625 4.0625 18.5 3 18.5 1.75C18.5 3 18.9375 4.0625 19.8125 4.9375C20.6875 5.8125 21.75 6.25 23 6.25C21.75 6.25 20.6875 6.6875 19.8125 7.5625C18.9375 8.4375 18.5 9.5 18.5 10.75Z" fill="#4CD8DB"/>
</g>
</svg>
