<svg width="23" height="23" viewBox="0 0 23 23" fill="none" xmlns="http://www.w3.org/2000/svg">
<g id="bell 1" clip-path="url(#clip0_632_14016)">
<path id="Vector" d="M20.5032 16.2084C19.0542 14.9836 18.2234 13.1933 18.2234 11.2968V8.625C18.2234 5.2527 15.7183 2.46105 12.4734 1.99341V0.958275C12.4734 0.428337 12.044 0 11.5149 0C10.986 0 10.5566 0.428337 10.5566 0.958275V1.99341C7.31068 2.46105 4.80664 5.2527 4.80664 8.625V11.2968C4.80664 13.1933 3.97576 14.9836 2.51808 16.2159C2.14537 16.5351 1.93164 16.9989 1.93164 17.4895C1.93164 18.4145 2.68391 19.1667 3.60867 19.1667H19.4212C20.3461 19.1667 21.0984 18.4145 21.0984 17.4895C21.0984 16.9989 20.8846 16.5351 20.5032 16.2084Z" fill="#132128"/>
<path id="Vector_2" d="M11.5149 23C13.2505 23 14.7024 21.7627 15.0358 20.125H7.99399C8.32757 21.7627 9.77946 23 11.5149 23Z" fill="#132128"/>
</g>
<defs>
<clipPath id="clip0_632_14016">
<rect width="23" height="23" fill="white"/>
</clipPath>
</defs>
</svg>
