<svg width="14" height="15" viewBox="0 0 14 15" fill="none" xmlns="http://www.w3.org/2000/svg">
<g id="acute">
<mask id="mask0_899_4137" style="mask-type:alpha" maskUnits="userSpaceOnUse" x="0" y="0" width="14" height="15">
<rect id="Bounding box" y="0.5" width="14" height="14" fill="#D9D9D9"/>
</mask>
<g mask="url(#mask0_899_4137)">
<path id="acute_2" d="M8.75001 12.1668C7.44723 12.1668 6.34376 11.7147 5.43959 10.8106C4.53543 9.90641 4.08334 8.80294 4.08334 7.50016C4.08334 6.20711 4.53543 5.10607 5.43959 4.19704C6.34376 3.28801 7.44723 2.8335 8.75001 2.8335C10.0431 2.8335 11.1441 3.28801 12.0531 4.19704C12.9622 5.10607 13.4167 6.20711 13.4167 7.50016C13.4167 8.80294 12.9622 9.90641 12.0531 10.8106C11.1441 11.7147 10.0431 12.1668 8.75001 12.1668ZM8.75001 11.0002C9.72223 11.0002 10.5486 10.6599 11.2292 9.97933C11.9097 9.29877 12.25 8.47238 12.25 7.50016C12.25 6.52794 11.9097 5.70155 11.2292 5.021C10.5486 4.34044 9.72223 4.00016 8.75001 4.00016C7.77779 4.00016 6.9514 4.34044 6.27084 5.021C5.59029 5.70155 5.25001 6.52794 5.25001 7.50016C5.25001 8.47238 5.59029 9.29877 6.27084 9.97933C6.9514 10.6599 7.77779 11.0002 8.75001 11.0002ZM10.0771 9.67308L10.9083 8.84183L9.33334 7.26683V5.16683H8.16668V7.74808L10.0771 9.67308ZM1.16668 5.75016V4.5835H3.50001V5.75016H1.16668ZM0.583344 8.0835V6.91683H3.50001V8.0835H0.583344ZM1.16668 10.4168V9.25016H3.50001V10.4168H1.16668Z" fill="#3CB744"/>
</g>
</g>
</svg>
