<svg width="19" height="18" viewBox="0 0 19 18" fill="none" xmlns="http://www.w3.org/2000/svg">
<g id="atm-card" clip-path="url(#clip0_28_9491)">
<g id="_x35_">
<g id="Group">
<g id="Group_2">
<g id="Group_3">
<g id="Group_4">
<path id="Vector" d="M17.0623 9.59951L6.15521 15.6022C5.55726 15.9313 4.80575 15.7134 4.47666 15.1154L1.15288 9.07604C0.823794 8.47809 1.04175 7.72657 1.63971 7.39749L12.5468 1.39476C13.1447 1.06568 13.8962 1.28364 14.2253 1.88159L17.5491 7.92097C17.8782 8.51892 17.6602 9.27043 17.0623 9.59951Z" fill="#FEBC1F"/>
</g>
</g>
<g id="Group_5">
<g id="Group_6">
<path id="Vector_2" d="M16.8241 9.16671L5.91705 15.1694C5.3191 15.4985 4.56759 15.2806 4.2385 14.6826L0.914719 8.64324C0.585634 8.04529 0.803595 7.29377 1.40155 6.96469L12.3086 0.96196C12.9066 0.632876 13.6581 0.850836 13.9872 1.44879L17.311 7.48817C17.64 8.08612 17.4221 8.83763 16.8241 9.16671Z" fill="#FFD475"/>
</g>
</g>
<g id="Group_7">
<g id="Group_8">
<g id="Group_9">
<path id="Vector_3" d="M12.3086 0.96197L1.40155 6.96471C0.803593 7.2938 0.585638 8.04531 0.914715 8.64325L4.2385 14.6826C4.2385 14.6826 1.1414 8.7596 13.4113 0.919031C13.0693 0.765373 12.6624 0.767276 12.3086 0.96197Z" fill="#FEBC1F"/>
</g>
</g>
</g>
<g id="Group_10">
<g id="Group_11">
<path id="Vector_4" d="M1.89242 9.38382L2.30979 10.1422C2.415 10.3334 2.65526 10.403 2.84643 10.2978L14.3526 3.96539C14.5438 3.86018 14.6135 3.61992 14.5083 3.42875L14.0909 2.67037C13.9857 2.4792 13.7454 2.40952 13.5542 2.51473L2.04806 8.84718C1.85689 8.95239 1.78721 9.19265 1.89242 9.38382Z" fill="#1D2943"/>
</g>
</g>
<g id="Group_12">
<g id="Group_13">
<path id="Vector_5" d="M1.77523 9.17361L2.19261 9.93199C2.29781 10.1232 2.53807 10.1928 2.72924 10.0876L14.2354 3.75518C14.4266 3.64997 14.4963 3.40971 14.3911 3.21855L13.9737 2.46017C13.8685 2.269 13.6282 2.19932 13.4371 2.30452L1.93087 8.63697C1.7397 8.74218 1.67002 8.98244 1.77523 9.17361Z" fill="#4C5C75"/>
</g>
</g>
</g>
<g id="Group_14">
<g id="Group_15">
<path id="Vector_6" d="M15.0895 17.1914L2.63976 17.1914C1.95723 17.1914 1.40393 16.6381 1.40393 15.9556L1.40393 9.062C1.40393 8.37947 1.95723 7.82618 2.63975 7.82618L15.0895 7.82617C15.7721 7.82617 16.3254 8.37947 16.3254 9.062L16.3254 15.9556C16.3254 16.6381 15.7721 17.1914 15.0895 17.1914Z" fill="#5094FF"/>
</g>
</g>
<g id="Group_16">
<g id="Group_17">
<path id="Vector_7" d="M2.63975 16.6974L15.0895 16.6974C15.7721 16.6974 16.3254 16.1441 16.3254 15.4616L16.3254 8.56798C16.3254 7.88546 15.7721 7.33216 15.0895 7.33216L2.63976 7.33215C1.95723 7.33215 1.40393 7.88545 1.40393 8.56798L1.40393 15.4616C1.40393 16.1441 1.95723 16.6974 2.63975 16.6974Z" fill="#57B3FE"/>
</g>
</g>
<g id="Group_18">
<g id="Group_19">
<g id="Group_20">
<path id="Vector_8" d="M2.6407 7.33215L15.0905 7.33217C15.773 7.33217 16.3263 7.88548 16.3263 8.56799L16.3263 15.4616C16.3263 15.4616 16.1838 8.77922 1.65393 7.82621C1.87944 7.52671 2.2369 7.33215 2.6407 7.33215Z" fill="#5094FF"/>
</g>
</g>
</g>
<g id="Group_21">
<g id="Group_22">
<g id="Group_23">
<g id="Group_24">
<path id="Vector_9" d="M15.3574 14.4793V14.6711H15.3549C15.3599 14.9305 15.1435 15.1483 14.8827 15.1483L13.6288 15.1483C13.3726 15.1483 13.1515 14.9345 13.1566 14.6711H13.1541V14.4793H13.1847C13.2587 14.293 13.4604 14.1653 13.6722 14.1653L14.8393 14.1653C15.0511 14.1653 15.2528 14.293 15.3268 14.4793H15.3574Z" fill="#E3E7F0"/>
</g>
</g>
<g id="Group_25">
<g id="Group_26">
<path id="Vector_10" d="M14.8823 14.958L13.6702 14.958C13.426 14.958 13.1952 14.7922 13.161 14.5504C13.1192 14.2559 13.3469 14.0033 13.6333 14.0033L14.8407 14.0033C15.0996 14.0033 15.3408 14.1912 15.3566 14.4497C15.3741 14.7366 15.1472 14.958 14.8823 14.958Z" fill="white"/>
</g>
</g>
</g>
<g id="Group_27">
<g id="Group_28">
<g id="Group_29">
<path id="Vector_11" d="M11.7637 14.4793V14.6711H11.7611C11.7661 14.9305 11.5498 15.1483 11.2889 15.1483L10.035 15.1483C9.77885 15.1483 9.55779 14.9345 9.56286 14.6711H9.5603V14.4793H9.59093C9.66496 14.293 9.86661 14.1653 10.0784 14.1653L11.2455 14.1653C11.4574 14.1653 11.659 14.293 11.7331 14.4793H11.7637Z" fill="#E3E7F0"/>
</g>
</g>
<g id="Group_30">
<g id="Group_31">
<path id="Vector_12" d="M11.2886 14.958L10.0765 14.958C9.83227 14.958 9.60149 14.7922 9.56721 14.5504C9.52546 14.2559 9.75319 14.0033 10.0396 14.0033L11.2469 14.0033C11.5059 14.0033 11.7471 14.1912 11.7628 14.4497C11.7803 14.7366 11.5535 14.958 11.2886 14.958Z" fill="white"/>
</g>
</g>
</g>
<g id="Group_32">
<g id="Group_33">
<g id="Group_34">
<path id="Vector_13" d="M8.16981 14.4793V14.6711H8.16725C8.17225 14.9305 7.95589 15.1483 7.69507 15.1483H6.44117C6.18498 15.1483 5.96391 14.9345 5.96899 14.6711H5.96643V14.4793H5.99706C6.07109 14.293 6.27274 14.1653 6.48454 14.1653H7.65167C7.8635 14.1653 8.06515 14.293 8.13918 14.4793H8.16981Z" fill="#E3E7F0"/>
</g>
</g>
<g id="Group_35">
<g id="Group_36">
<path id="Vector_14" d="M7.6947 14.958L6.48261 14.958C6.2384 14.958 6.00762 14.7922 5.97334 14.5504C5.93159 14.2559 6.15931 14.0033 6.44572 14.0033L7.65305 14.0033C7.91202 14.0033 8.15319 14.1912 8.16896 14.4497C8.18646 14.7366 7.95958 14.958 7.6947 14.958Z" fill="white"/>
</g>
</g>
</g>
<g id="Group_37">
<g id="Group_38">
<g id="Group_39">
<path id="Vector_15" d="M4.57606 14.4793V14.6711H4.5735C4.5785 14.9305 4.36214 15.1483 4.10132 15.1483L2.84742 15.1483C2.59123 15.1483 2.37016 14.9345 2.37524 14.6711H2.37268V14.4793H2.40331C2.47734 14.293 2.67899 14.1653 2.89079 14.1653L4.05792 14.1653C4.26975 14.1653 4.4714 14.293 4.54543 14.4793H4.57606Z" fill="#E3E7F0"/>
</g>
</g>
<g id="Group_40">
<g id="Group_41">
<path id="Vector_16" d="M4.10095 14.958L2.88886 14.958C2.64465 14.958 2.41387 14.7922 2.37959 14.5504C2.33784 14.2559 2.56556 14.0033 2.85197 14.0033L4.0593 14.0033C4.31827 14.0033 4.55944 14.1912 4.57521 14.4497C4.59271 14.7366 4.36583 14.958 4.10095 14.958Z" fill="white"/>
</g>
</g>
</g>
</g>
<g id="Group_42">
<g id="Group_43">
<g id="Group_44">
<path id="Vector_17" d="M2.37463 9.50973L2.37463 10.6629C2.37463 10.9536 2.61028 11.1892 2.90096 11.1892L5.06025 11.1892C5.35093 11.1892 5.58658 10.9536 5.58658 10.6629L5.58658 9.50973C5.58658 9.21904 5.35093 8.9834 5.06025 8.9834L2.90096 8.9834C2.61028 8.98341 2.37463 9.21905 2.37463 9.50973Z" fill="#FEBC1F"/>
</g>
</g>
<g id="Group_45">
<g id="Group_46">
<path id="Vector_18" d="M2.37463 9.33004L2.37463 10.4832C2.37463 10.7739 2.61028 11.0095 2.90096 11.0095L5.06025 11.0095C5.35093 11.0095 5.58658 10.7739 5.58658 10.4832V9.33004C5.58658 9.03936 5.35093 8.80371 5.06025 8.80371L2.90096 8.80372C2.61028 8.80372 2.37463 9.03936 2.37463 9.33004Z" fill="#FFD475"/>
</g>
</g>
</g>
<g id="Group_47">
<g id="Group_48">
<g id="Group_49">
<path id="Vector_19" d="M3.92467 9.78221V8.80371H3.67467V9.78221H2.37463V10.0322H3.08588V11.0095H3.33588V10.0322H4.46154V11.0095H4.71153V10.0322H5.58658V9.78221H3.92467Z" fill="#FEBC1F"/>
</g>
</g>
</g>
<g id="Group_50">
<g id="Group_51">
<g id="Group_52">
<g id="Group_53">
<path id="Vector_20" d="M15.1307 10.6456L13.7231 10.6456C13.6059 10.6456 13.495 10.566 13.4786 10.4499C13.4585 10.3085 13.5679 10.1871 13.7054 10.1871L15.1107 10.1871C15.235 10.1871 15.3508 10.2774 15.3584 10.4015C15.3668 10.5393 15.2579 10.6456 15.1307 10.6456Z" fill="white"/>
</g>
</g>
</g>
<g id="Group_54">
<g id="Group_55">
<g id="Group_56">
<path id="Vector_21" d="M15.1298 9.66416L12.6587 9.66417C12.5414 9.66417 12.4306 9.58454 12.4141 9.46842C12.3941 9.32702 12.5034 9.2057 12.641 9.2057L15.1098 9.20569C15.2342 9.20569 15.35 9.29594 15.3576 9.42007C15.366 9.55787 15.257 9.66416 15.1298 9.66416Z" fill="white"/>
</g>
</g>
</g>
</g>
</g>
<g id="Group_57">
<g id="Group_58">
<path id="Vector_22" d="M14.7535 4.32007C15.3419 5.07503 15.8227 5.89548 16.1912 6.77896C15.6019 6.0246 15.1229 5.20307 14.7535 4.32007Z" fill="white"/>
</g>
</g>
<g id="Group_59">
<g id="Group_60">
<path id="Vector_23" d="M3.79077 6.77842C4.64813 6.12238 5.57144 5.57351 6.55873 5.1366C5.70192 5.79351 4.77754 6.3406 3.79077 6.77842Z" fill="white"/>
</g>
</g>
<g id="Group_61">
<g id="Group_62">
<path id="Vector_24" d="M10.8707 16.0768C11.9428 15.95 13.0168 15.9489 14.0888 16.0768C13.0168 16.2047 11.9428 16.2037 10.8707 16.0768Z" fill="white"/>
</g>
</g>
</g>
</g>
<defs>
<clipPath id="clip0_28_9491">
<rect width="18" height="18" fill="white" transform="translate(0.231934)"/>
</clipPath>
</defs>
</svg>
