<svg width="22" height="14" viewBox="0 0 22 14" fill="none" xmlns="http://www.w3.org/2000/svg">
<rect x="0.474976" y="0.375" width="20.25" height="13.25" rx="6.625" fill="#132128" stroke="url(#paint0_linear_899_10698)" stroke-width="0.75"/>
<path d="M7.55223 10L5.33623 4.08H6.72023L7.84023 7.072C7.97623 7.44 8.08823 7.808 8.21623 8.32C8.36823 7.752 8.48023 7.424 8.60823 7.072L9.71223 4.08H11.0642L8.88823 10H7.55223ZM11.3567 5.8C11.3567 4.728 12.2607 3.968 13.5327 3.968C14.8047 3.968 15.6047 4.672 15.6047 5.792H14.3167C14.3167 5.376 14.0047 5.12 13.5167 5.12C12.9887 5.12 12.6527 5.36 12.6527 5.752C12.6527 6.112 12.8367 6.288 13.2527 6.376L14.1407 6.56C15.1967 6.776 15.7007 7.28 15.7007 8.216C15.7007 9.36 14.8047 10.104 13.4447 10.104C12.1247 10.104 11.2687 9.392 11.2687 8.28H12.5567C12.5567 8.712 12.8767 8.952 13.4527 8.952C14.0367 8.952 14.4047 8.72 14.4047 8.344C14.4047 8.016 14.2527 7.848 13.8607 7.768L12.9567 7.584C11.9007 7.368 11.3567 6.768 11.3567 5.8Z" fill="#4CD8DB"/>
<defs>
<linearGradient id="paint0_linear_899_10698" x1="8.40768" y1="-1.23442" x2="11.1666" y2="13.1722" gradientUnits="userSpaceOnUse">
<stop offset="0.12" stop-color="#ADEDEE"/>
<stop offset="1" stop-color="#4CD8DB"/>
</linearGradient>
</defs>
</svg>
