<svg width="23" height="24" viewBox="0 0 23 24" fill="none" xmlns="http://www.w3.org/2000/svg">
<g id="bell 1">
<path id="Vector" d="M20.5032 17.2084C19.0542 15.9836 18.2234 14.1933 18.2234 12.2968V9.625C18.2234 6.2527 15.7183 3.46105 12.4734 2.99341V1.95827C12.4734 1.42834 12.044 1 11.5149 1C10.986 1 10.5566 1.42834 10.5566 1.95827V2.99341C7.31068 3.46105 4.80664 6.2527 4.80664 9.625V12.2968C4.80664 14.1933 3.97576 15.9836 2.51808 17.2159C2.14537 17.5351 1.93164 17.9989 1.93164 18.4895C1.93164 19.4145 2.68391 20.1667 3.60867 20.1667H19.4212C20.3461 20.1667 21.0984 19.4145 21.0984 18.4895C21.0984 17.9989 20.8846 17.5351 20.5032 17.2084Z" fill="#132128"/>
<path id="Vector_2" d="M11.5149 24C13.2505 24 14.7024 22.7627 15.0358 21.125H7.99399C8.32757 22.7627 9.77946 24 11.5149 24Z" fill="#132128"/>
<circle id="Ellipse 30" cx="18" cy="5" r="5" fill="#FF597D"/>
</g>
</svg>
