<svg width="30" height="30" viewBox="0 0 30 30" fill="none" xmlns="http://www.w3.org/2000/svg">
<g id="Cash-01 1">
<path id="Vector" d="M15 27.6149C21.8148 27.6149 27.3393 22.2369 27.3393 15.6027C27.3393 8.9686 21.8148 3.59058 15 3.59058C8.1852 3.59058 2.66071 8.9686 2.66071 15.6027C2.66071 22.2369 8.1852 27.6149 15 27.6149Z" fill="#36999B"/>
<path id="Vector_2" d="M15 26.688C21.8148 26.688 27.3393 21.2476 27.3393 14.5366C27.3393 7.8256 21.8148 2.38525 15 2.38525C8.1852 2.38525 2.66071 7.8256 2.66071 14.5366C2.66071 21.2476 8.1852 26.688 15 26.688Z" fill="url(#paint0_linear_664_14595)"/>
<path id="Vector_3" d="M24.5494 14.5381C24.5497 15.3089 24.454 16.0768 24.2644 16.8239C23.2279 20.9113 19.474 23.9399 15 23.9399C9.72733 23.9399 5.45203 19.7299 5.45203 14.5375C5.45248 13.9907 5.50031 13.4449 5.59498 12.9064C6.37933 8.49084 10.2919 5.13354 15 5.13354C20.2743 5.13354 24.5494 9.3436 24.5494 14.5381Z" fill="#36999B"/>
<path id="Vector_4" d="M24.4104 15.1871C24.4106 15.7358 24.362 16.2834 24.2654 16.8234C23.2293 20.9111 19.4748 23.9399 15 23.9399C9.72646 23.9399 5.45056 19.7295 5.45056 14.5368C5.45091 13.9897 5.49874 13.4437 5.59351 12.9048C6.62956 8.8151 10.3841 5.78345 14.8595 5.78345C20.1345 5.78405 24.4104 9.9944 24.4104 15.1871Z" fill="url(#paint1_linear_664_14595)"/>
<path id="Vector_5" d="M23.7321 6.72297L23.2617 7.18496C22.8917 7.55786 22.5211 7.93081 22.15 8.30382C21.2836 7.34144 20.2308 6.56491 19.0555 6.02126L20.0455 5.07806L20.7244 4.40771C21.8637 4.98344 22.8841 5.76893 23.7321 6.72297Z" fill="#C8F3F4"/>
<path id="Vector_6" d="M24.87 8.27505L24.501 8.6385L23.2688 9.8523C23.1839 9.6972 23.0867 9.53325 22.9754 9.3636C22.8614 9.1899 22.7471 9.03225 22.6362 8.89005L23.7968 7.74555L24.2279 7.323C24.4592 7.62832 24.6736 7.94615 24.87 8.27505Z" fill="#C8F3F4"/>
<path id="Vector_7" d="M8.67375 21.5807L7.15965 23.0711C6.24689 22.2836 5.49197 21.33 4.935 20.2608C5.445 19.7588 5.9546 19.2567 6.4638 18.7544C7.01273 19.8294 7.76319 20.789 8.67435 21.5807H8.67375Z" fill="#C8F3F4"/>
<path id="Vector_8" d="M10.1631 22.6465L8.65559 24.1315C8.33911 23.9499 8.03341 23.7501 7.73999 23.5333L9.25049 22.0454C9.39719 22.1534 9.55409 22.2631 9.72134 22.3726C9.87244 22.4716 10.0197 22.5629 10.1631 22.6465Z" fill="#C8F3F4"/>
<path id="Vector_9" d="M18.8987 16.8359C18.8987 17.4084 18.7537 17.9113 18.4637 18.3446C18.1737 18.7779 17.7687 19.1166 17.2487 19.3606C16.9426 19.5025 16.6188 19.6025 16.286 19.658V20.7997H14.5691V19.6466C14.2659 19.5897 13.9711 19.4945 13.6919 19.3634C13.1788 19.1216 12.7602 18.7788 12.4362 18.335C12.1122 17.8912 11.9059 17.3662 11.8173 16.76L13.5213 16.495C13.6352 16.9911 13.874 17.3866 14.2377 17.6815C14.6014 17.9764 15.0358 18.1236 15.5409 18.1232C16.0166 18.1232 16.4112 18.0116 16.7246 17.7884C17.038 17.5652 17.1946 17.2896 17.1945 16.9616C17.1945 16.739 17.1262 16.555 16.9895 16.4095C16.8528 16.264 16.6393 16.1452 16.349 16.0532L14.1018 15.3599C12.8061 14.9599 12.1583 14.1688 12.1583 12.9866C12.1583 12.431 12.2898 11.9493 12.5529 11.5414C12.816 11.1335 13.1883 10.819 13.6697 10.5979C13.9561 10.4687 14.259 10.3793 14.5697 10.3322V9.2002H16.2863V10.373C16.5249 10.4236 16.7576 10.499 16.9805 10.598C17.438 10.7992 17.8396 11.1088 18.1505 11.5001C18.4637 11.8937 18.6919 12.3725 18.8352 12.9364L17.0682 13.2514C17.0144 12.9928 16.9022 12.7499 16.74 12.5414C16.5808 12.3377 16.3768 12.1735 16.1438 12.0614C15.9065 11.9458 15.642 11.8835 15.3521 11.8756C15.0746 11.867 14.8231 11.907 14.5977 11.9956C14.3723 12.0842 14.1934 12.2072 14.061 12.3647C13.9286 12.5228 13.8624 12.7007 13.8623 12.8983C13.8623 13.1168 13.9545 13.3055 14.1398 13.4629C14.325 13.6202 14.6198 13.7563 15.0233 13.8701L16.6265 14.3249C17.4302 14.5565 18.0097 14.8701 18.3651 15.2656C18.7205 15.6611 18.8984 16.1845 18.8987 16.8359Z" fill="white"/>
<path id="Vector_10" d="M18.5407 16.8359C18.5407 17.4084 18.3957 17.9113 18.1057 18.3446C17.8157 18.7779 17.4107 19.1166 16.8907 19.3606C16.5846 19.5025 16.2607 19.6025 15.9279 19.658V20.7997H14.2111V19.6466C13.9079 19.5897 13.6131 19.4945 13.3338 19.3634C12.8208 19.1216 12.4023 18.7788 12.0783 18.335C11.7543 17.8912 11.5479 17.3662 11.4592 16.76L13.1634 16.495C13.2772 16.9911 13.516 17.3866 13.8798 17.6815C14.2436 17.9764 14.6779 18.1236 15.1828 18.1232C15.6586 18.1232 16.0532 18.0116 16.3665 17.7884C16.6798 17.5652 16.8365 17.2896 16.8366 16.9616C16.8366 16.739 16.7682 16.555 16.6315 16.4095C16.4948 16.264 16.2813 16.1452 15.991 16.0532L13.7439 15.3599C12.4482 14.9599 11.8003 14.1688 11.8002 12.9866C11.8002 12.431 11.9318 11.9493 12.195 11.5414C12.4582 11.1335 12.8304 10.819 13.3117 10.5979C13.5982 10.4687 13.901 10.3793 14.2117 10.3322V9.2002H15.9282V10.373C16.1669 10.4236 16.3996 10.499 16.6225 10.598C17.08 10.7992 17.4816 11.1088 17.7925 11.5001C18.1057 11.8937 18.334 12.3725 18.4773 12.9364L16.7103 13.2514C16.6564 12.9927 16.544 12.7497 16.3818 12.5411C16.2225 12.3375 16.0185 12.1732 15.7855 12.0611C15.5482 11.9454 15.2843 11.8835 14.9937 11.8753C14.7162 11.8667 14.4647 11.9067 14.2393 11.9953C14.0139 12.0839 13.8352 12.2069 13.7031 12.3644C13.5707 12.5225 13.5044 12.7004 13.5043 12.898C13.5043 13.1165 13.5966 13.3052 13.7818 13.4626C13.9671 13.6199 14.2618 13.756 14.6653 13.8698L16.2685 14.3249C17.0722 14.5565 17.6518 14.8701 18.0072 15.2656C18.3626 15.6611 18.5404 16.1845 18.5407 16.8359Z" fill="#36999B"/>
</g>
<defs>
<linearGradient id="paint0_linear_664_14595" x1="2.66071" y1="14.5366" x2="27.3393" y2="14.5366" gradientUnits="userSpaceOnUse">
<stop offset="0.12" stop-color="#ADEDEE"/>
<stop offset="1" stop-color="#4CD8DB"/>
</linearGradient>
<linearGradient id="paint1_linear_664_14595" x1="14.9303" y1="4.04" x2="14.9303" y2="23.7585" gradientUnits="userSpaceOnUse">
<stop stop-color="white"/>
<stop offset="0.57" stop-color="#ADEDEE"/>
<stop offset="1" stop-color="#4CD8DB"/>
</linearGradient>
</defs>
</svg>
