<svg width="31" height="30" viewBox="0 0 31 30" fill="none" xmlns="http://www.w3.org/2000/svg">
<g id="Credit-01 1">
<path id="Vector" d="M15.5 27.448C22.2247 27.448 27.6761 22.1412 27.6761 15.5949C27.6761 9.04854 22.2247 3.7417 15.5 3.7417C8.77534 3.7417 3.32391 9.04854 3.32391 15.5949C3.32391 22.1412 8.77534 27.448 15.5 27.448Z" fill="#B57F0C"/>
<path id="Vector_2" d="M15.5 26.5331C22.2247 26.5331 27.6761 21.1647 27.6761 14.5426C27.6761 7.92035 22.2247 2.552 15.5 2.552C8.77534 2.552 3.32391 7.92035 3.32391 14.5426C3.32391 21.1647 8.77534 26.5331 15.5 26.5331Z" fill="url(#paint0_linear_664_14584)"/>
<path id="Vector_3" d="M24.9231 14.5442C24.9233 15.3049 24.8286 16.0626 24.6413 16.7999C23.619 20.8333 19.9148 23.8223 15.4994 23.8223C10.2965 23.8223 6.07788 19.6673 6.07788 14.5444C6.07822 14.0045 6.12535 13.4658 6.21873 12.9341C6.99273 8.57721 10.8537 5.26416 15.4994 5.26416C20.705 5.26401 24.9231 9.41841 24.9231 14.5442Z" fill="#B57F0C"/>
<path id="Vector_4" d="M24.7859 15.1846C24.7861 15.726 24.7381 16.2664 24.6427 16.7993C23.6203 20.8328 19.9156 23.8222 15.4994 23.8222C10.2958 23.8222 6.07642 19.6672 6.07642 14.5436C6.07673 14.0037 6.1239 13.4649 6.21742 12.9332C7.23982 8.89746 10.9445 5.90601 15.3607 5.90601C20.5666 5.90601 24.7859 10.0607 24.7859 15.1846Z" fill="url(#paint1_linear_664_14584)"/>
<path id="Vector_5" d="M24.1166 6.83265L23.6516 7.2885L22.5547 8.3925C21.6998 7.44272 20.661 6.67648 19.5011 6.14025L20.4774 5.20935L21.1473 4.54785C22.272 5.11595 23.2793 5.89111 24.1166 6.83265Z" fill="#FFE7B5"/>
<path id="Vector_6" d="M25.2395 8.3642L24.875 8.7227L23.66 9.9206C23.5763 9.76745 23.48 9.6056 23.3705 9.4382C23.2581 9.2669 23.1455 9.1112 23.0358 8.97095L24.1811 7.8416L24.6057 7.42505C24.8341 7.72619 25.0457 8.03972 25.2395 8.3642Z" fill="#FFE7B5"/>
<path id="Vector_7" d="M9.25745 21.4937L7.76345 22.9637C6.86254 22.1868 6.11743 21.2457 5.56775 20.1907L7.0763 18.7051C7.61788 19.7659 8.35837 20.7127 9.25745 21.4939V21.4937Z" fill="#FFE7B5"/>
<path id="Vector_8" d="M10.7271 22.5449C10.2312 23.0333 9.73539 23.5218 9.23959 24.0103C8.92705 23.8311 8.62514 23.6339 8.33539 23.4199L9.82654 21.9517C9.97129 22.0583 10.1265 22.1665 10.2915 22.2746C10.4403 22.3724 10.5855 22.4625 10.7271 22.5449Z" fill="#FFE7B5"/>
<path id="Vector_9" d="M15.4325 7.8584L17.0951 12.8091L22.6803 12.8381L18.1754 16.186L19.8008 21.121L15.5867 18.1209L11.0567 21.3111C11.6153 19.5594 12.1739 17.8077 12.7326 16.0559L8.31964 12.8991L13.7615 12.84C14.3186 11.1795 14.8756 9.519 15.4325 7.8584Z" fill="white"/>
<path id="Vector_10" d="M17.876 16.079L19.4716 20.9903L15.2917 17.9551L11.1137 20.9903L12.7093 16.079L11.1926 14.9759L8.53131 13.0417H13.6961L15.2917 8.13037L16.8893 13.0417H22.054L19.3927 14.9759L17.876 16.079Z" fill="#E8A30F"/>
</g>
<defs>
<linearGradient id="paint0_linear_664_14584" x1="3.32391" y1="14.5426" x2="27.6761" y2="14.5426" gradientUnits="userSpaceOnUse">
<stop offset="0.12" stop-color="#FFDC92"/>
<stop offset="1" stop-color="#FFB311"/>
</linearGradient>
<linearGradient id="paint1_linear_664_14584" x1="15.4312" y1="4.18506" x2="15.4312" y2="23.6426" gradientUnits="userSpaceOnUse">
<stop offset="0.12" stop-color="#FFDC92"/>
<stop offset="1" stop-color="#FFB311"/>
</linearGradient>
</defs>
</svg>
