<svg width="73" height="73" viewBox="0 0 73 73" fill="none" xmlns="http://www.w3.org/2000/svg">
<g id="feedback 1">
<g id="Group">
<path id="Vector" d="M51.1101 16.7251H17.9754C12.2472 16.7251 7.60352 21.3688 7.60352 27.097V61.9655C7.60352 63.7383 9.80918 64.5544 10.963 63.2083L18.0316 54.9616H51.1101C56.8384 54.9616 61.4821 50.3179 61.4821 44.5897V27.097C61.4821 21.3688 56.8384 16.7251 51.1101 16.7251Z" fill="url(#paint0_linear_899_798)"/>
<path id="Vector_2" d="M51.9223 28.8908H18.9C17.4602 28.8908 16.293 27.7235 16.293 26.2838C16.293 24.844 17.4602 23.6768 18.9 23.6768H51.9223C53.3621 23.6768 54.5293 24.844 54.5293 26.2838C54.5293 27.7237 53.3622 28.8908 51.9223 28.8908Z" fill="url(#paint1_linear_899_798)"/>
<path id="Vector_3" d="M51.9223 39.3195H18.9C17.4602 39.3195 16.293 38.1523 16.293 36.7125C16.293 35.2727 17.4602 34.1055 18.9 34.1055H51.9223C53.3621 34.1055 54.5293 35.2727 54.5293 36.7125C54.5293 38.1523 53.3622 39.3195 51.9223 39.3195Z" fill="url(#paint2_linear_899_798)"/>
<path id="Vector_4" d="M32.804 49.7472H18.9C17.4602 49.7472 16.293 48.58 16.293 47.1402C16.293 45.7004 17.4602 44.5332 18.9 44.5332H32.804C34.2438 44.5332 35.4111 45.7004 35.4111 47.1402C35.4111 48.58 34.2438 49.7472 32.804 49.7472Z" fill="url(#paint3_linear_899_798)"/>
<path id="Vector_5" d="M50.1868 39.5368C58.5862 39.5368 65.3952 32.7278 65.3952 24.3285C65.3952 15.9291 58.5862 9.12012 50.1868 9.12012C41.7875 9.12012 34.9785 15.9291 34.9785 24.3285C34.9785 32.7278 41.7875 39.5368 50.1868 39.5368Z" fill="url(#paint4_linear_899_798)"/>
<path id="Vector_6" d="M58.9478 21.9345C58.8468 21.6334 58.5863 21.4138 58.2719 21.3657L53.4481 20.6295L51.2832 16.0195C51.1435 15.7225 50.8448 15.5327 50.5164 15.5327C50.1879 15.5327 49.8894 15.7225 49.7495 16.0195L47.5846 20.6295L42.7608 21.3657C42.4464 21.4136 42.1857 21.6334 42.0849 21.9345C41.9839 22.2356 42.0601 22.5678 42.2819 22.7953L45.7977 26.3956L44.9655 31.4899C44.9134 31.81 45.049 32.1318 45.3138 32.3188C45.5793 32.5057 45.9293 32.5247 46.2114 32.3676L50.5166 29.9901L54.8217 32.3676C54.9499 32.4388 55.0906 32.4734 55.2313 32.4734C55.4025 32.4734 55.5738 32.4213 55.7193 32.3188C55.9841 32.1318 56.1198 31.81 56.0676 31.4899L55.2354 26.3956L58.7513 22.7953C58.9726 22.5678 59.0487 22.2356 58.9478 21.9345Z" fill="#FFF9E9"/>
</g>
</g>
<defs>
<linearGradient id="paint0_linear_899_798" x1="28.9181" y1="12.5674" x2="40.8125" y2="59.8802" gradientUnits="userSpaceOnUse">
<stop offset="0.12" stop-color="#ADEDEE"/>
<stop offset="1" stop-color="#4CD8DB"/>
</linearGradient>
<linearGradient id="paint1_linear_899_798" x1="16.293" y1="26.2841" x2="54.5298" y2="26.2841" gradientUnits="userSpaceOnUse">
<stop stop-color="#C2CFFD"/>
<stop offset="0.0001" stop-color="white"/>
<stop offset="1" stop-color="white"/>
</linearGradient>
<linearGradient id="paint2_linear_899_798" x1="16.293" y1="36.7129" x2="54.5298" y2="36.7129" gradientUnits="userSpaceOnUse">
<stop stop-color="white"/>
<stop offset="1" stop-color="white"/>
</linearGradient>
<linearGradient id="paint3_linear_899_798" x1="16.2928" y1="47.141" x2="35.4112" y2="47.141" gradientUnits="userSpaceOnUse">
<stop stop-color="white"/>
<stop offset="1" stop-color="white"/>
</linearGradient>
<linearGradient id="paint4_linear_899_798" x1="50.1868" y1="9.12012" x2="53.2285" y2="27.2751" gradientUnits="userSpaceOnUse">
<stop stop-color="#FFDC92"/>
<stop offset="1" stop-color="#FFB311"/>
</linearGradient>
</defs>
</svg>
