<svg width="19" height="18" viewBox="0 0 19 18" fill="none" xmlns="http://www.w3.org/2000/svg">
<path d="M9.23242 3C8.04574 3 6.8857 3.35189 5.899 4.01118C4.91231 4.67047 4.14327 5.60754 3.68915 6.7039C3.23502 7.80025 3.1162 9.00665 3.34771 10.1705C3.57922 11.3344 4.15067 12.4035 4.98978 13.2426C5.8289 14.0818 6.898 14.6532 8.06188 14.8847C9.22577 15.1162 10.4322 14.9974 11.5285 14.5433C12.6249 14.0891 13.5619 13.3201 14.2212 12.3334C14.8805 11.3467 15.2324 10.1867 15.2324 9C15.2324 8.21207 15.0772 7.43185 14.7757 6.7039C14.4742 5.97594 14.0322 5.31451 13.4751 4.75736C12.9179 4.20021 12.2565 3.75825 11.5285 3.45672C10.8006 3.15519 10.0204 3 9.23242 3ZM12.6404 8.724L11.3624 10.032L11.6624 11.892C11.6832 12.0051 11.6711 12.1217 11.6275 12.2281C11.5839 12.3345 11.5106 12.4261 11.4164 12.492C11.3239 12.5562 11.2152 12.593 11.1027 12.5983C10.9903 12.6036 10.8786 12.5772 10.7804 12.522L9.23242 11.652L7.67242 12.51C7.58517 12.5614 7.48568 12.5883 7.38442 12.588C7.26003 12.5889 7.13842 12.5512 7.03642 12.48C6.94225 12.4141 6.86899 12.3225 6.82538 12.2161C6.78177 12.1097 6.76964 11.9931 6.79042 11.88L7.09642 10.02L5.81242 8.724C5.7348 8.6449 5.68061 8.54584 5.65585 8.43782C5.63109 8.32979 5.63673 8.21702 5.67215 8.11201C5.70757 8.007 5.77138 7.91385 5.8565 7.84289C5.94163 7.77193 6.04475 7.72593 6.15442 7.71L7.90042 7.44L8.68642 5.772C8.73104 5.66336 8.80655 5.57021 8.90361 5.50408C9.00067 5.43795 9.11499 5.40176 9.23242 5.4C9.34653 5.39918 9.45851 5.43092 9.55522 5.4915C9.65193 5.55207 9.72936 5.63897 9.77842 5.742L10.5584 7.44L12.3044 7.71C12.4137 7.72632 12.5163 7.77249 12.601 7.84343C12.6857 7.91436 12.7492 8.0073 12.7844 8.112C12.8194 8.21735 12.8244 8.33033 12.799 8.43837C12.7736 8.54641 12.7187 8.64529 12.6404 8.724Z" fill="#4CD8DB"/>
</svg>
