<svg width="18" height="18" viewBox="0 0 18 18" fill="none" xmlns="http://www.w3.org/2000/svg">
<g id="team 1">
<g id="Icon">
<g id="Group">
<path id="Vector" d="M9 8.8125C10.551 8.8125 11.8125 7.55025 11.8125 6C11.8125 4.44975 10.551 3.1875 9 3.1875C7.449 3.1875 6.1875 4.44975 6.1875 6C6.1875 7.55025 7.449 8.8125 9 8.8125Z" fill="#4CD8DB"/>
<path id="Vector_2" d="M13.8752 9.99975C15.0295 9.99975 15.9692 9.06075 15.9692 7.9065C15.9692 6.75225 15.0295 5.8125 13.8752 5.8125C12.721 5.8125 11.7812 6.75225 11.7812 7.9065C11.7812 9.06075 12.721 9.99975 13.8752 9.99975Z" fill="#4CD8DB"/>
<path id="Vector_3" d="M4.12525 9.99975C5.2795 9.99975 6.21925 9.06075 6.21925 7.9065C6.21925 6.75225 5.2795 5.8125 4.12525 5.8125C2.971 5.8125 2.03125 6.75225 2.03125 7.9065C2.03125 9.06075 2.971 9.99975 4.12525 9.99975Z" fill="#4CD8DB"/>
</g>
<path id="Vector_4" fill-rule="evenodd" clip-rule="evenodd" d="M9 9.1875C6.61875 9.1875 4.6875 11.118 4.6875 13.5V14.25C4.6875 14.5605 4.9395 14.8125 5.25 14.8125H12.75C13.0605 14.8125 13.3125 14.5605 13.3125 14.25V13.5C13.3125 11.118 11.3812 9.1875 9 9.1875Z" fill="#4CD8DB"/>
<path id="Vector_5" d="M4.125 10.6875C2.36775 10.6875 0.9375 12.117 0.9375 13.875C0.9375 14.3918 1.35825 14.8125 1.875 14.8125H3.9525C3.708 14.433 3.5625 13.9845 3.5625 13.5C3.5625 12.4755 3.85275 11.5192 4.347 10.701C4.2735 10.6957 4.2 10.6875 4.125 10.6875Z" fill="#4CD8DB"/>
<path id="Vector_6" d="M13.8743 10.6875C13.7993 10.6875 13.7258 10.6957 13.6523 10.701C14.1466 11.5192 14.4368 12.4755 14.4368 13.5C14.4368 13.9845 14.2913 14.433 14.0468 14.8125H16.1243C16.6411 14.8125 17.0618 14.3918 17.0618 13.875C17.0618 12.117 15.6316 10.6875 13.8743 10.6875Z" fill="#4CD8DB"/>
</g>
</g>
</svg>
