<svg width="26" height="26" viewBox="0 0 26 26" fill="none" xmlns="http://www.w3.org/2000/svg">
<g id="group_auto">
<mask id="mask0_937_17010" style="mask-type:alpha" maskUnits="userSpaceOnUse" x="0" y="0" width="26" height="26">
<rect id="Bounding box" x="0.625" y="0.5" width="25" height="25" fill="#D9D9D9"/>
</mask>
<g mask="url(#mask0_937_17010)">
<path id="group_auto_2" d="M2.70801 23.4167V21.073C2.70801 20.5348 2.8469 20.0444 3.12467 19.6016C3.40245 19.1589 3.7844 18.8161 4.27051 18.573C5.17329 18.1216 6.10645 17.7744 7.06999 17.5313C8.03353 17.2883 9.01877 17.1667 10.0257 17.1667C11.0327 17.1667 12.0179 17.2883 12.9814 17.5313C13.945 17.7744 14.8695 18.1216 15.7549 18.573C16.2236 18.8161 16.5969 19.1589 16.8747 19.6016C17.1525 20.0444 17.2913 20.5348 17.2913 21.073V23.4167H2.70801ZM19.3747 23.4167V20.8126C19.3747 20.1529 19.2054 19.5365 18.8669 18.9636C18.5283 18.3907 18.1073 17.8872 17.6038 17.4532C18.1594 17.5921 18.7106 17.744 19.2575 17.9089C19.8044 18.0739 20.3295 18.2865 20.833 18.547C21.2844 18.79 21.675 19.1025 22.0049 19.4845C22.3347 19.8664 22.4997 20.3091 22.4997 20.8126V23.4167H19.3747ZM9.99967 16.1251C8.99273 16.1251 8.13335 15.7692 7.42155 15.0574C6.70974 14.3456 6.35384 13.4862 6.35384 12.4792C6.35384 11.4723 6.70974 10.6129 7.42155 9.90112C8.13335 9.18932 8.99273 8.83341 9.99967 8.83341C11.0066 8.83341 11.866 9.18932 12.5778 9.90112C13.2896 10.6129 13.6455 11.4723 13.6455 12.4792C13.6455 13.4862 13.2896 14.3456 12.5778 15.0574C11.866 15.7692 11.0066 16.1251 9.99967 16.1251ZM18.8538 12.4792C18.8538 13.4862 18.4979 14.3456 17.7861 15.0574C17.0743 15.7692 16.215 16.1251 15.208 16.1251C15.0691 16.1251 14.9433 16.1207 14.8304 16.1121C14.7176 16.1034 14.6004 16.0817 14.4788 16.047C14.9129 15.5435 15.2297 14.9879 15.4294 14.3803C15.629 13.7727 15.7288 13.139 15.7288 12.4792C15.7288 11.8195 15.629 11.1858 15.4294 10.5782C15.2297 9.97057 14.9129 9.41501 14.4788 8.91154C14.6004 8.87682 14.7176 8.85512 14.8304 8.84644C14.9433 8.83776 15.0691 8.83341 15.208 8.83341C16.215 8.83341 17.0743 9.18932 17.7861 9.90112C18.4979 10.6129 18.8538 11.4723 18.8538 12.4792ZM4.79134 21.3334H15.208V21.099C15.208 20.9601 15.1689 20.8256 15.0908 20.6954C15.0127 20.5652 14.9042 20.4654 14.7653 20.3959C14.0188 20.014 13.2462 19.7275 12.4476 19.5365C11.649 19.3456 10.833 19.2501 9.99967 19.2501C9.16634 19.2501 8.35037 19.3456 7.55176 19.5365C6.75315 19.7275 5.98058 20.014 5.23405 20.3959C5.09516 20.4654 4.98665 20.5608 4.90853 20.6824C4.8304 20.8039 4.79134 20.9428 4.79134 21.099V21.3334ZM9.99967 14.0417C10.4337 14.0417 10.8026 13.8898 11.1064 13.586C11.4103 13.2822 11.5622 12.9133 11.5622 12.4792C11.5622 12.0452 11.4103 11.6763 11.1064 11.3725C10.8026 11.0687 10.4337 10.9167 9.99967 10.9167C9.56565 10.9167 9.19672 11.0687 8.8929 11.3725C8.58908 11.6763 8.43717 12.0452 8.43717 12.4792C8.43717 12.9133 8.58908 13.2822 8.8929 13.586C9.19672 13.8898 9.56565 14.0417 9.99967 14.0417ZM19.8955 10.9167C19.8955 9.61466 19.4398 8.50789 18.5283 7.59644C17.6169 6.68498 16.5101 6.22925 15.208 6.22925C16.5101 6.22925 17.6169 5.77352 18.5283 4.86206C19.4398 3.9506 19.8955 2.84383 19.8955 1.54175C19.8955 2.84383 20.3512 3.9506 21.2627 4.86206C22.1742 5.77352 23.2809 6.22925 24.583 6.22925C23.2809 6.22925 22.1742 6.68498 21.2627 7.59644C20.3512 8.50789 19.8955 9.61466 19.8955 10.9167Z" fill="#277EE8"/>
</g>
</g>
</svg>
