<svg width="26" height="26" viewBox="0 0 26 26" fill="none" xmlns="http://www.w3.org/2000/svg">
<g id="public">
<mask id="mask0_937_17059" style="mask-type:alpha" maskUnits="userSpaceOnUse" x="0" y="0" width="26" height="26">
<rect id="Bounding box" x="0.625" y="0.5" width="25" height="25" fill="#2B8AFF"/>
</mask>
<g mask="url(#mask0_937_17059)">
<path id="public_2" d="M13.1237 23.4163C11.6827 23.4163 10.3286 23.1429 9.0612 22.596C7.79384 22.0492 6.69141 21.307 5.75391 20.3695C4.81641 19.432 4.07422 18.3295 3.52734 17.0622C2.98047 15.7948 2.70703 14.4406 2.70703 12.9997C2.70703 11.5587 2.98047 10.2045 3.52734 8.93717C4.07422 7.66981 4.81641 6.56738 5.75391 5.62988C6.69141 4.69238 7.79384 3.9502 9.0612 3.40332C10.3286 2.85645 11.6827 2.58301 13.1237 2.58301C14.5647 2.58301 15.9188 2.85645 17.1862 3.40332C18.4536 3.9502 19.556 4.69238 20.4935 5.62988C21.431 6.56738 22.1732 7.66981 22.7201 8.93717C23.2669 10.2045 23.5404 11.5587 23.5404 12.9997C23.5404 14.4406 23.2669 15.7948 22.7201 17.0622C22.1732 18.3295 21.431 19.432 20.4935 20.3695C19.556 21.307 18.4536 22.0492 17.1862 22.596C15.9188 23.1429 14.5647 23.4163 13.1237 23.4163ZM12.082 21.2809V19.2497C11.5091 19.2497 11.0187 19.0457 10.6107 18.6377C10.2027 18.2297 9.9987 17.7393 9.9987 17.1663V16.1247L4.9987 11.1247C4.94661 11.4372 4.89887 11.7497 4.85547 12.0622C4.81207 12.3747 4.79036 12.6872 4.79036 12.9997C4.79036 15.1004 5.48047 16.9406 6.86068 18.5205C8.24089 20.1004 9.98134 21.0205 12.082 21.2809ZM19.2695 18.6247C19.6168 18.2427 19.9293 17.8304 20.207 17.3877C20.4848 16.945 20.7148 16.4849 20.8971 16.0075C21.0794 15.5301 21.2183 15.0396 21.3138 14.5361C21.4093 14.0327 21.457 13.5205 21.457 12.9997C21.457 11.2983 20.9839 9.74447 20.0378 8.33822C19.0916 6.93197 17.8286 5.91634 16.2487 5.29134V5.70801C16.2487 6.28092 16.0447 6.77138 15.6367 7.17936C15.2287 7.58735 14.7383 7.79134 14.1654 7.79134H12.082V9.87468C12.082 10.1698 11.9822 10.4172 11.7826 10.6169C11.5829 10.8165 11.3355 10.9163 11.0404 10.9163H8.95703V12.9997H15.207C15.5022 12.9997 15.7496 13.0995 15.9492 13.2992C16.1489 13.4988 16.2487 13.7462 16.2487 14.0413V17.1663H17.2904C17.7418 17.1663 18.1497 17.3009 18.5143 17.57C18.8789 17.8391 19.1306 18.1906 19.2695 18.6247Z" fill="#277EE8"/>
</g>
</g>
</svg>
