<svg width="32" height="32" viewBox="0 0 32 32" fill="none" xmlns="http://www.w3.org/2000/svg">
<g id="rank 1">
<path id="Vector" fill-rule="evenodd" clip-rule="evenodd" d="M16.634 2.61813C16.4345 2.00392 15.5655 2.00392 15.366 2.61813L15.1568 3.26182C15.0676 3.53652 14.8116 3.72249 14.5228 3.72249H13.846C13.2001 3.72249 12.9316 4.54889 13.4541 4.92849L14.0016 5.32633C14.2353 5.49609 14.3331 5.797 14.2439 6.07169L14.0347 6.71538C13.8351 7.3296 14.5381 7.84034 15.0605 7.46074L15.6081 7.06292C15.8419 6.89316 16.1581 6.89316 16.3919 7.06292L16.9395 7.46074C17.4619 7.84034 18.1649 7.3296 17.9653 6.71538L17.7561 6.07169C17.6669 5.797 17.7647 5.49609 17.9984 5.32633L18.5459 4.92849C19.0684 4.54889 18.7999 3.72249 18.154 3.72249H17.4772C17.1884 3.72249 16.9324 3.53652 16.8432 3.26182L16.634 2.61813ZM14.6667 9.66676C13.1939 9.66676 12 10.8607 12 12.3334V25.6667C12 27.1395 13.1939 28.3334 14.6667 28.3334H17.3333C18.8061 28.3334 20 27.1395 20 25.6667V12.3334C20 10.8607 18.8061 9.66676 17.3333 9.66676H14.6667ZM24 17.6667C22.5272 17.6667 21.3333 18.8607 21.3333 20.3334V25.6667C21.3333 27.1395 22.5272 28.3334 24 28.3334H26.6667C28.1395 28.3334 29.3333 27.1395 29.3333 25.6667V20.3334C29.3333 18.8607 28.1395 17.6667 26.6667 17.6667H24ZM2.66666 17.6667C2.66666 16.194 3.86056 15 5.33332 15H7.99999C9.47275 15 10.6667 16.194 10.6667 17.6667V25.6667C10.6667 27.1395 9.47275 28.3334 7.99999 28.3334H5.33332C3.86056 28.3334 2.66666 27.1395 2.66666 25.6667V17.6667Z" fill="url(#paint0_linear_632_13999)"/>
</g>
<defs>
<linearGradient id="paint0_linear_632_13999" x1="13.2161" y1="-0.150535" x2="20.5098" y2="25.717" gradientUnits="userSpaceOnUse">
<stop offset="0.12" stop-color="#ADEDEE"/>
<stop offset="1" stop-color="#4CD8DB"/>
</linearGradient>
</defs>
</svg>
