<svg width="94" height="95" viewBox="0 0 94 95" fill="none" xmlns="http://www.w3.org/2000/svg">
<path d="M78.1769 27.4141C78.5613 27.4141 78.9415 27.4956 79.2928 27.6533C79.6441 27.8109 79.9588 28.0413 80.2166 28.3295C80.4744 28.6178 80.6695 28.9574 80.7894 29.3265C80.9092 29.6957 80.9512 30.0861 80.9125 30.4726L75.4537 85.0245C75.223 87.3304 74.1534 89.4677 72.4522 91.0219C70.751 92.5761 68.5394 93.4365 66.2461 93.4365H33.0281C30.7349 93.4365 28.5233 92.576 26.8221 91.0218C25.1209 89.4676 24.0513 87.3304 23.8205 85.0245L18.0557 27.4141H78.1769Z" fill="url(#paint0_linear_1127_12024)"/>
<path d="M31.4598 85.1533C31.9713 88.8111 34.3318 92.31 37.3611 93.4365H33.0283C30.735 93.4365 28.5234 92.576 26.8222 91.0218C25.1209 89.4676 24.0513 87.3304 23.8205 85.0245L18.0557 27.4141H26.5814L31.4598 85.1533Z" fill="url(#paint1_linear_1127_12024)"/>
<path d="M82.5985 9.41069C82.8816 10.1967 83.0087 11.0314 82.9726 11.8671C82.9365 12.7028 82.7379 13.5231 82.3881 14.2812C82.0383 15.0393 81.5442 15.7204 80.934 16.2855C80.3237 16.8506 79.6093 17.2887 78.8316 17.5748L19.479 39.4079C17.9082 39.9857 16.1746 39.9092 14.6596 39.1952C13.1446 38.4812 11.9723 37.1882 11.4006 35.6007C10.8289 34.0132 10.9046 32.2612 11.611 30.7301C12.3175 29.199 13.5969 28.0142 15.1677 27.4364L74.5204 5.60383C76.0911 5.02608 77.8246 5.10259 79.3396 5.8165C80.8545 6.53042 82.0268 7.82328 82.5985 9.41069Z" fill="#132128"/>
<path d="M27.3502 36.5122L19.479 39.4079C17.9082 39.9857 16.1746 39.9092 14.6596 39.1952C13.1446 38.4812 11.9723 37.1883 11.4006 35.6007C10.8289 34.0132 10.9046 32.2612 11.611 30.7301C12.3175 29.199 13.5969 28.0142 15.1677 27.4364L23.0224 24.5469L27.3502 36.5122Z" fill="#132128"/>
<path d="M60.0135 10.9396L55.3779 12.6446L53.6853 7.94524C53.4944 7.41701 53.104 6.98688 52.5997 6.74923C52.0954 6.51158 51.5184 6.48581 50.9953 6.67758L33.8732 12.976C33.3506 13.1689 32.925 13.5635 32.6899 14.0731C32.4547 14.5827 32.4292 15.1658 32.6189 15.6944L34.3114 20.3939L29.6759 22.0991L27.9833 17.3996C27.3477 15.6284 27.4332 13.6746 28.2211 11.9671C29.009 10.2595 30.435 8.93748 32.1861 8.2911L49.3086 1.99271C51.0612 1.35032 52.9943 1.43673 54.6839 2.23299C56.3736 3.02925 57.6817 4.47032 58.3213 6.24006L60.0135 10.9396Z" fill="url(#paint2_linear_1127_12024)"/>
<path d="M30.5363 21.7832L29.6749 22.1001L27.9823 17.4006C27.3467 15.6293 27.4323 13.6756 28.2202 11.968C29.0081 10.2605 30.434 8.93846 32.1852 8.29208L49.3075 1.99369C50.9801 1.37737 52.8221 1.42786 54.4591 2.13489C53.1188 1.80685 51.7124 1.88684 50.4169 2.36478L32.5601 8.97211C29.4478 10.1225 27.5847 13.5126 28.9115 17.195L30.5363 21.7832Z" fill="url(#paint3_linear_1127_12024)"/>
<g style="mix-blend-mode:lighten">
<path d="M52.0687 42.8748V79.8517C52.0687 80.5424 51.7972 81.2049 51.3139 81.6933C50.8306 82.1817 50.1752 82.4561 49.4917 82.4561C48.8083 82.4561 48.1528 82.1817 47.6696 81.6933C47.1863 81.2049 46.9148 80.5424 46.9148 79.8517V42.8748C46.9148 42.1841 47.1863 41.5217 47.6696 41.0333C48.1528 40.5449 48.8083 40.2705 49.4917 40.2705C50.1752 40.2705 50.8306 40.5449 51.3139 41.0333C51.7972 41.5217 52.0687 42.1841 52.0687 42.8748ZM63.3857 44.4481C62.7023 44.4481 62.0468 44.7225 61.5636 45.2109C61.0803 45.6993 60.8088 46.3617 60.8088 47.0524V75.6743C60.8088 76.365 61.0803 77.0275 61.5636 77.5159C62.0468 78.0043 62.7023 78.2787 63.3857 78.2787C64.0692 78.2787 64.7246 78.0043 65.2079 77.5159C65.6912 77.0275 65.9627 76.365 65.9627 75.6743V47.0524C65.9627 46.3617 65.6912 45.6993 65.2079 45.2109C64.7246 44.7225 64.0692 44.4481 63.3857 44.4481ZM35.991 44.4481C35.3075 44.4481 34.6521 44.7225 34.1688 45.2109C33.6856 45.6993 33.4141 46.3617 33.4141 47.0524V75.6743C33.4198 76.3612 33.6938 77.018 34.1764 77.5017C34.6591 77.9853 35.3112 78.2567 35.9909 78.2567C36.6706 78.2567 37.3227 77.9853 37.8053 77.5017C38.288 77.018 38.562 76.3612 38.5677 75.6743V47.0524C38.5677 46.3618 38.2963 45.6994 37.813 45.211C37.3298 44.7226 36.6744 44.4481 35.991 44.4481Z" fill="#ADEDEE"/>
</g>
<defs>
<linearGradient id="paint0_linear_1127_12024" x1="42.9277" y1="21.5927" x2="62.4014" y2="86.1501" gradientUnits="userSpaceOnUse">
<stop offset="0.12" stop-color="#ADEDEE"/>
<stop offset="1" stop-color="#4CD8DB"/>
</linearGradient>
<linearGradient id="paint1_linear_1127_12024" x1="25.693" y1="21.5927" x2="60.9033" y2="57.4351" gradientUnits="userSpaceOnUse">
<stop offset="0.12" stop-color="#ADEDEE"/>
<stop offset="1" stop-color="#4CD8DB"/>
</linearGradient>
<linearGradient id="paint2_linear_1127_12024" x1="40.3997" y1="-0.244023" x2="44.2533" y2="20.9596" gradientUnits="userSpaceOnUse">
<stop offset="0.12" stop-color="#ADEDEE"/>
<stop offset="1" stop-color="#4CD8DB"/>
</linearGradient>
<linearGradient id="paint3_linear_1127_12024" x1="38.2018" y1="-0.245172" x2="42.7851" y2="20.6558" gradientUnits="userSpaceOnUse">
<stop offset="0.12" stop-color="#ADEDEE"/>
<stop offset="1" stop-color="#4CD8DB"/>
</linearGradient>
</defs>
</svg>
