<svg width="23" height="23" viewBox="0 0 23 23" fill="none" xmlns="http://www.w3.org/2000/svg">
<g id="search 1">
<g id="layer1">
<path id="circle2017" d="M10.4837 1.85083C5.73159 1.85083 1.86057 5.72185 1.86057 10.474C1.86057 15.2261 5.73159 19.1046 10.4837 19.1046C12.5135 19.1046 14.3802 18.3933 15.8556 17.2123L19.4475 20.8022C19.6287 20.976 19.8708 21.0719 20.1219 21.0693C20.373 21.0667 20.6131 20.966 20.7908 20.7885C20.9684 20.6111 21.0696 20.3712 21.0725 20.1201C21.0754 19.8691 20.9799 19.6268 20.8064 19.4453L17.2145 15.8534C18.3965 14.3758 19.1087 12.5061 19.1087 10.474C19.1087 5.72185 15.2358 1.85083 10.4837 1.85083ZM10.4837 3.76753C14.2 3.76753 17.1902 6.75772 17.1902 10.474C17.1902 14.1902 14.2 17.1879 10.4837 17.1879C6.76743 17.1879 3.77723 14.1902 3.77723 10.474C3.77723 6.75772 6.76743 3.76753 10.4837 3.76753Z" fill="#132128"/>
</g>
</g>
</svg>
